<?xml version="1.0" encoding="UTF-8" standalone="no"?>
<svg width="337px" height="236px" viewBox="0 0 337 236" version="1.1" xmlns="http://www.w3.org/2000/svg" xmlns:xlink="http://www.w3.org/1999/xlink">
    <!-- Generator: Sketch 41.2 (35397) - http://www.bohemiancoding.com/sketch -->
    <title>Slice 1</title>
    <desc>Created with Sketch.</desc>
    <defs>
        <polygon id="path-1" points="0 235.875 335.948 235.875 335.948 0.841 0 0.841"></polygon>
    </defs>
    <g id="Page-1" stroke="none" stroke-width="1" fill="none" fill-rule="evenodd">
        <g id="m_25">
            <g id="Group-11">
                <mask id="mask-2" fill="white">
                    <use xlink:href="#path-1"></use>
                </mask>
                <g id="Clip-2"></g>
                <polygon id="Fill-1" fill="#49C6E2" mask="url(#mask-2)" points="0 235.875 335.948 235.875 335.948 0.841 0 0.841"></polygon>
                <path d="M204.208,225.031 C103.567,225.031 21.981,168.971 21.981,99.818 C21.981,65.241 42.378,33.938 75.354,11.279 C79.477,8.445 83.794,5.748 88.295,3.196 C90.545,1.921 92.84,0.681 95.178,-0.521 L95.178,0.602 L313.238,0.602 L313.238,-0.521 C315.576,0.681 317.872,1.921 320.122,3.196 C324.623,5.748 328.941,8.445 333.063,11.279 C334.092,11.986 335.112,12.703 336.117,13.428 C336.62,13.79 337.121,14.155 337.615,14.521 L336.187,14.521 L336.187,185.114 L337.615,185.114 C337.121,185.483 336.62,185.845 336.117,186.207 C335.112,186.933 334.092,187.651 333.063,188.36 C300.085,211.017 254.53,225.031 204.208,225.031" id="Fill-3" fill="#49C6E2" mask="url(#mask-2)"></path>
                <path d="M204.208,220.56 C107.161,220.56 28.489,166.502 28.489,99.818 C28.489,66.476 48.157,36.29 79.956,14.439 C87.906,8.978 96.614,4.036 105.962,-0.304 L105.962,0.602 L302.455,0.602 L302.455,-0.304 C311.803,4.036 320.511,8.978 328.462,14.439 C330.447,15.806 332.388,17.203 334.28,18.633 C335.225,19.348 336.158,20.07 337.078,20.801 L336.187,20.801 L336.187,178.835 L337.078,178.835 C336.158,179.566 335.225,180.288 334.28,181.003 C332.388,182.431 330.447,183.831 328.462,185.195 C296.662,207.046 252.731,220.56 204.208,220.56" id="Fill-4" fill="#49C6E2" mask="url(#mask-2)"></path>
                <path d="M204.208,216.089 C110.756,216.089 34.998,164.032 34.998,99.818 C34.998,67.71 53.937,38.643 84.558,17.602 C92.212,12.342 100.599,7.583 109.601,3.404 C111.852,2.36 114.141,1.351 116.466,0.381 L116.466,0.602 L291.951,0.602 L291.951,0.381 C294.276,1.351 296.564,2.36 298.814,3.404 C307.816,7.583 316.203,12.342 323.859,17.602 C327.686,20.232 331.332,22.988 334.78,25.859 C335.641,26.577 336.491,27.301 337.33,28.034 L336.187,28.034 L336.187,171.603 L337.33,171.603 C336.491,172.332 335.641,173.06 334.78,173.776 C331.332,176.649 327.686,179.404 323.859,182.033 C293.236,203.074 250.934,216.089 204.208,216.089" id="Fill-5" fill="#49C6E2" mask="url(#mask-2)"></path>
                <path d="M204.208,211.617 C114.35,211.617 41.506,161.563 41.506,99.818 C41.506,68.945 59.716,40.996 89.161,20.765 C96.522,15.706 104.584,11.131 113.24,7.112 C117.568,5.104 122.043,3.234 126.654,1.512 C128.959,0.652 131.299,-0.172 133.67,-0.957 L133.67,0.602 L274.747,0.602 L274.747,-0.957 C277.118,-0.172 279.457,0.652 281.761,1.512 C286.374,3.234 290.849,5.104 295.176,7.112 C303.833,11.131 311.895,15.706 319.256,20.765 C322.937,23.293 326.44,25.943 329.757,28.704 C331.416,30.084 333.027,31.492 334.587,32.926 C335.37,33.644 336.136,34.368 336.892,35.099 L336.187,35.099 L336.187,164.536 L336.892,164.536 C336.136,165.267 335.37,165.991 334.587,166.708 C333.027,168.143 331.416,169.551 329.757,170.933 C326.44,173.693 322.937,176.343 319.256,178.87 C289.812,199.103 249.138,211.617 204.208,211.617" id="Fill-6" fill="#49C6E2" mask="url(#mask-2)"></path>
                <path d="M204.208,207.146 C117.944,207.146 48.013,159.093 48.013,99.818 C48.013,70.18 65.497,43.349 93.762,23.926 C107.896,14.216 124.723,6.357 143.411,0.925 C145.747,0.246 148.111,-0.394 150.503,-0.997 L150.503,0.602 L257.914,0.602 L257.914,-0.997 C260.304,-0.394 262.672,0.246 265.006,0.925 C283.693,6.357 300.522,14.216 314.654,23.926 C321.722,28.781 328.115,34.1 333.728,39.811 C335.131,41.238 336.485,42.69 337.791,44.165 L336.187,44.165 L336.187,155.471 L337.791,155.471 C336.485,156.945 335.131,158.398 333.728,159.825 C328.115,165.535 321.722,170.853 314.654,175.71 C286.389,195.133 247.339,207.146 204.208,207.146" id="Fill-7" fill="#49C6E2" mask="url(#mask-2)"></path>
                <path d="M204.208,202.672 C121.538,202.672 54.522,156.624 54.522,99.818 C54.522,71.415 71.276,45.702 98.364,27.089 C111.908,17.782 128.035,10.251 145.943,5.047 C154.898,2.443 164.298,0.423 174.042,-0.947 L174.042,0.602 L234.376,0.602 L234.376,-0.947 C244.119,0.423 253.518,2.443 262.473,5.047 C280.382,10.251 296.508,17.782 310.051,27.089 C316.826,31.742 322.951,36.839 328.331,42.31 C331.021,45.046 333.524,47.877 335.829,50.791 C336.406,51.52 336.968,52.254 337.519,52.993 L336.187,52.993 L336.187,146.642 L337.519,146.642 C336.968,147.383 336.406,148.114 335.829,148.845 C333.524,151.759 331.021,154.588 328.331,157.324 C322.951,162.797 316.826,167.894 310.051,172.546 C282.966,191.159 245.542,202.672 204.208,202.672" id="Fill-8" fill="#49C6E2" mask="url(#mask-2)"></path>
                <path d="M204.208,198.2 C125.133,198.2 61.031,154.153 61.031,99.818 C61.031,45.483 125.133,1.436 204.208,1.436 C243.746,1.436 279.541,12.447 305.452,30.251 C318.407,39.153 328.89,49.752 336.134,61.523 C336.588,62.259 337.027,62.999 337.455,63.743 L336.187,63.743 L336.187,135.892 L337.455,135.892 C337.027,136.636 336.588,137.375 336.134,138.112 C328.89,149.883 318.407,160.484 305.452,169.384 C279.541,187.189 243.746,198.2 204.208,198.2" id="Fill-9" fill="#49C6E2" mask="url(#mask-2)"></path>
                <path d="M204.208,193.729 C128.727,193.729 67.538,151.683 67.538,99.818 C67.538,47.953 128.727,5.907 204.208,5.907 C241.949,5.907 276.117,16.418 300.849,33.412 C313.216,41.91 323.222,52.028 330.138,63.263 C331.867,66.072 333.405,68.951 334.735,71.892 C335.4,73.362 336.014,74.848 336.577,76.348 L336.187,76.348 L336.187,123.287 L336.577,123.287 C336.014,124.786 335.4,126.273 334.735,127.744 C333.405,130.684 331.867,133.563 330.138,136.372 C323.222,147.609 313.216,157.726 300.849,166.224 C276.117,183.218 241.949,193.729 204.208,193.729" id="Fill-10" fill="#49C6E2" mask="url(#mask-2)"></path>
            </g>
            <path d="M204.208,189.256 C132.322,189.256 74.046,149.212 74.046,99.818 C74.046,50.422 132.322,10.379 204.208,10.379 C276.095,10.379 334.373,50.422 334.373,99.818 C334.373,149.212 276.095,189.256 204.208,189.256" id="Fill-12" fill-opacity="0.711107337" fill="#5ED2EC"></path>
            <path d="M204.208,184.785 C135.917,184.785 80.554,146.743 80.554,99.818 C80.554,52.892 135.917,14.851 204.208,14.851 C272.5,14.851 327.864,52.892 327.864,99.818 C327.864,146.743 272.5,184.785 204.208,184.785" id="Fill-13" fill-opacity="0.711107337" fill="#5ED2EC"></path>
            <path d="M204.208,180.314 C139.51,180.314 87.062,144.274 87.062,99.818 C87.062,55.362 139.51,19.322 204.208,19.322 C268.907,19.322 321.355,55.362 321.355,99.818 C321.355,144.274 268.907,180.314 204.208,180.314" id="Fill-14" fill-opacity="0.711107337" fill="#5ED2EC"></path>
            <path d="M204.208,175.842 C143.105,175.842 93.571,141.804 93.571,99.818 C93.571,57.831 143.105,23.794 204.208,23.794 C265.312,23.794 314.847,57.831 314.847,99.818 C314.847,141.804 265.312,175.842 204.208,175.842" id="Fill-15" fill-opacity="0.711107337" fill="#5ED2EC"></path>
            <path d="M204.208,171.368 C146.699,171.368 100.078,139.333 100.078,99.818 C100.078,60.301 146.699,28.266 204.208,28.266 C261.717,28.266 308.337,60.301 308.337,99.818 C308.337,139.333 261.717,171.368 204.208,171.368" id="Fill-16" fill-opacity="0.711107337" fill="#5ED2EC"></path>
            <path d="M204.208,166.897 C150.293,166.897 106.587,136.863 106.587,99.818 C106.587,62.772 150.293,32.739 204.208,32.739 C258.123,32.739 301.829,62.772 301.829,99.818 C301.829,136.863 258.123,166.897 204.208,166.897" id="Fill-17" fill-opacity="0.711107337" fill="#5ED2EC"></path>
            <path d="M204.208,162.425 C153.887,162.425 113.095,134.394 113.095,99.818 C113.095,65.241 153.887,37.211 204.208,37.211 C254.53,37.211 295.321,65.241 295.321,99.818 C295.321,134.394 254.53,162.425 204.208,162.425" id="Fill-18" fill-opacity="0.711107337" fill="#5ED2EC"></path>
            <path d="M204.208,157.951 C157.482,157.951 119.603,131.924 119.603,99.818 C119.603,67.71 157.482,41.683 204.208,41.683 C250.934,41.683 288.813,67.71 288.813,99.818 C288.813,131.924 250.934,157.951 204.208,157.951" id="Fill-19" fill-opacity="0.711107337" fill="#5ED2EC"></path>
            <path d="M204.208,153.48 C161.075,153.48 126.111,129.455 126.111,99.818 C126.111,70.18 161.077,46.155 204.208,46.155 C247.339,46.155 282.304,70.18 282.304,99.818 C282.304,129.455 247.339,153.48 204.208,153.48" id="Fill-20" fill-opacity="0.711107337" fill="#5ED2EC"></path>
            <path d="M204.208,149.008 C164.67,149.008 132.619,126.986 132.619,99.818 C132.619,72.65 164.67,50.626 204.208,50.626 C243.746,50.626 275.796,72.65 275.796,99.818 C275.796,126.986 243.746,149.008 204.208,149.008" id="Fill-21" fill-opacity="0.711107337" fill="#5ED2EC"></path>
            <path d="M204.208,144.536 C168.264,144.536 139.126,124.516 139.126,99.818 C139.126,75.12 168.264,55.098 204.208,55.098 C240.152,55.098 269.29,75.12 269.29,99.818 C269.29,124.516 240.152,144.536 204.208,144.536" id="Fill-22" fill-opacity="0.711107337" fill="#5ED2EC"></path>
            <path d="M204.208,140.066 C171.86,140.066 145.635,122.046 145.635,99.818 C145.635,77.59 171.86,59.57 204.208,59.57 C236.558,59.57 262.781,77.59 262.781,99.818 C262.781,122.046 236.558,140.066 204.208,140.066" id="Fill-23" fill-opacity="0.711107337" fill="#5ED2EC"></path>
            <path d="M204.208,135.594 C175.455,135.594 152.144,119.577 152.144,99.818 C152.144,80.06 175.455,64.043 204.208,64.043 C232.962,64.043 256.273,80.06 256.273,99.818 C256.273,119.577 232.962,135.594 204.208,135.594" id="Fill-24" fill-opacity="0.711107337" fill="#5ED2EC"></path>
            <path d="M204.208,131.12 C179.047,131.12 158.652,117.106 158.652,99.818 C158.652,82.53 179.047,68.514 204.208,68.514 C229.368,68.514 249.765,82.53 249.765,99.818 C249.765,117.106 229.368,131.12 204.208,131.12" id="Fill-25" fill-opacity="0.711107337" fill="#5ED2EC"></path>
            <path d="M204.208,126.649 C182.643,126.649 165.159,114.636 165.159,99.818 C165.159,85 182.643,72.987 204.208,72.987 C225.773,72.987 243.257,85 243.257,99.818 C243.257,114.636 225.773,126.649 204.208,126.649" id="Fill-26" fill-opacity="0.711107337" fill="#5ED2EC"></path>
            <path d="M204.208,122.177 C186.236,122.177 171.667,112.167 171.667,99.818 C171.667,87.469 186.236,77.458 204.208,77.458 C222.18,77.458 236.749,87.469 236.749,99.818 C236.749,112.167 222.18,122.177 204.208,122.177" id="Fill-27" fill-opacity="0.711107337" fill="#5ED2EC"></path>
            <path d="M204.208,117.706 C189.831,117.706 178.177,109.697 178.177,99.818 C178.177,89.939 189.831,81.93 204.208,81.93 C218.585,81.93 230.241,89.939 230.241,99.818 C230.241,109.697 218.585,117.706 204.208,117.706" id="Fill-28" fill-opacity="0.711107337" fill="#5ED2EC"></path>
            <path d="M204.208,113.235 C193.423,113.235 184.685,107.227 184.685,99.818 C184.685,92.408 193.423,86.402 204.208,86.402 C214.992,86.402 223.733,92.408 223.733,99.818 C223.733,107.227 214.992,113.235 204.208,113.235" id="Fill-29" fill-opacity="0.711107337" fill="#5ED2EC"></path>
            <path d="M204.208,108.762 C197.018,108.762 191.193,104.758 191.193,99.818 C191.193,94.878 197.018,90.874 204.208,90.874 C211.397,90.874 217.225,94.878 217.225,99.818 C217.225,104.758 211.397,108.762 204.208,108.762" id="Fill-30" fill-opacity="0.711107337" fill="#5ED2EC"></path>
            <path d="M204.208,104.29 C200.614,104.29 197.702,102.288 197.702,99.818 C197.702,97.347 200.614,95.346 204.208,95.346 C207.802,95.346 210.716,97.347 210.716,99.818 C210.716,102.288 207.802,104.29 204.208,104.29" id="Fill-31" fill-opacity="0.711107337" fill="#5ED2EC"></path>
            <path d="M145.121,37.322 C146.331,37.346 147.483,37.58 148.559,37.972 C148.566,37.842 148.563,37.717 148.574,37.588 C149.375,28.89 157.044,22.493 165.707,23.296 C173.088,23.984 178.791,29.686 179.822,36.743 C181.629,32.177 186.259,29.15 191.378,29.626 C196.832,30.133 201.023,34.443 201.591,39.709 C206.54,40.216 210.357,44.443 210.253,49.526 C210.156,54.435 206.438,58.407 201.71,58.952 L143.213,58.952 C137.942,58.122 133.953,53.496 134.062,47.989 C134.182,41.976 139.135,37.202 145.121,37.322" id="Fill-32" fill="#FFFFFF"></path>
            <path d="M144.76,39.072 C145.931,39.095 147.044,39.31 148.085,39.671 C148.092,39.551 148.089,39.437 148.1,39.318 C148.875,31.324 156.294,25.445 164.672,26.182 C171.815,26.814 177.33,32.054 178.326,38.541 C180.077,34.344 184.554,31.562 189.505,32 C194.783,32.466 198.835,36.427 199.386,41.266 C204.171,41.732 207.865,45.617 207.765,50.289 C207.671,54.801 204.073,58.451 199.501,58.952 L142.914,58.952 C137.815,58.189 133.956,53.938 134.062,48.876 C134.179,43.35 138.97,38.962 144.76,39.072" id="Fill-33" fill="#FFF9EE"></path>
            <path d="M40.703,73.945 C41.624,73.964 42.501,74.141 43.321,74.44 C43.327,74.342 43.324,74.246 43.331,74.148 C43.942,67.524 49.784,62.652 56.379,63.263 C62.001,63.787 66.344,68.13 67.128,73.504 C68.507,70.027 72.032,67.721 75.929,68.084 C80.083,68.469 83.275,71.753 83.709,75.763 C87.476,76.149 90.383,79.368 90.305,83.239 C90.232,86.978 87.399,90.003 83.799,90.418 L39.249,90.418 C35.235,89.785 32.197,86.262 32.281,82.068 C32.372,77.489 36.144,73.853 40.703,73.945" id="Fill-34" fill="#FFFFFF"></path>
            <path d="M40.427,75.279 C41.319,75.296 42.166,75.459 42.96,75.734 C42.965,75.642 42.963,75.555 42.971,75.465 C43.562,69.377 49.211,64.899 55.592,65.461 C61.032,65.942 65.231,69.934 65.99,74.873 C67.323,71.677 70.734,69.558 74.503,69.892 C78.522,70.246 81.609,73.263 82.028,76.949 C85.673,77.303 88.485,80.262 88.409,83.821 C88.338,87.257 85.598,90.036 82.116,90.418 L39.021,90.418 C35.138,89.836 32.2,86.599 32.281,82.744 C32.369,78.535 36.018,75.194 40.427,75.279" id="Fill-35" fill="#FFF9EE"></path>
            <path d="M24.393,24.903 C25.576,24.926 26.701,25.154 27.75,25.538 C27.758,25.411 27.755,25.288 27.766,25.162 C28.548,16.67 36.037,10.424 44.494,11.207 C51.702,11.878 57.269,17.447 58.275,24.338 C60.042,19.88 64.562,16.923 69.559,17.388 C74.885,17.883 78.977,22.092 79.532,27.233 C84.362,27.728 88.09,31.856 87.99,36.819 C87.895,41.612 84.263,45.49 79.649,46.022 L22.531,46.022 C17.383,45.211 13.489,40.695 13.596,35.318 C13.713,29.447 18.55,24.785 24.393,24.903" id="Fill-36" fill="#FFFFFF"></path>
            <path d="M24.041,26.612 C25.185,26.634 26.272,26.843 27.289,27.196 C27.295,27.079 27.292,26.967 27.302,26.851 C28.06,19.046 35.304,13.306 43.485,14.026 C50.457,14.643 55.842,19.76 56.815,26.092 C58.525,21.995 62.897,19.279 67.731,19.706 C72.882,20.16 76.84,24.03 77.378,28.754 C82.051,29.209 85.657,33.002 85.559,37.564 C85.468,41.969 81.956,45.534 77.491,46.022 L22.239,46.022 C17.26,45.277 13.493,41.126 13.596,36.184 C13.71,30.788 18.389,26.504 24.041,26.612" id="Fill-37" fill="#FFF9EE"></path>
            <path d="M312.134,55.24 C312.134,71.738 298.818,85.111 282.39,85.111 C265.962,85.111 252.647,71.738 252.647,55.24 C252.647,38.742 265.962,25.368 282.39,25.368 C298.818,25.368 312.134,38.742 312.134,55.24" id="Fill-38" fill="#FFFFFF"></path>
            <path d="M308.935,56.846 C308.935,72.457 296.333,85.111 280.791,85.111 C265.248,85.111 252.647,72.457 252.647,56.846 C252.647,41.236 265.248,28.581 280.791,28.581 C296.333,28.581 308.935,41.236 308.935,56.846" id="Fill-39" fill="#FFF9EE"></path>
            <path d="M160.206,132.239 L160.206,154.952 L160.187,158.938 C159.969,158.863 158.882,159.245 158.654,159.337 C157.657,159.734 157.608,158.415 156.678,159.161 C155.547,159.159 154.321,159.159 153.288,159.159 C151.905,159.159 150.95,157.634 150.95,157.634 L150.867,132.239 L160.206,132.239" id="Fill-40" fill="#048072"></path>
            <path d="M115.091,137.556 C123.259,131.313 128.951,119.458 129.783,119.474 C127.803,119.398 124.215,119.314 124.073,119.223 C129.568,115.877 134.887,102.488 132.837,102.474 C132.569,102.338 128.417,102.199 126.848,102.057 C136.385,96.924 140.715,85.868 140.462,85.848 C139.085,86.335 134.779,86.809 132.051,87.271 C142.581,80.014 145.751,70.262 143.541,70.277 C143.491,70.375 143.839,70.237 142.203,70.333 C147.024,63.841 154.165,41.253 155.298,41.091 C155.431,40.929 166.612,64.159 169.427,67.801 C168.411,67.898 168.806,67.997 167.943,68.094 C165.249,68.11 169.218,77.435 178.082,84.717 C174.65,84.442 173.145,84.18 170.447,83.931 C169.673,83.912 178.099,95.184 184.287,101.092 C182.346,101.277 181.173,101.466 176.968,101.657 C176.677,101.644 182.776,116.471 188.131,121.223 C187.255,121.131 186.308,121.048 184.179,120.972 C181.386,120.987 186.52,134.651 196.655,144.602 C196.244,144.641 186.949,148.445 178.453,143.17 C178.773,143.172 180.239,147.06 183.724,148.557 C186.884,148.594 177.115,151.411 170.198,143.783 C169.839,143.795 168.081,146.122 172.416,150.114 C172.394,150.173 164.044,153.699 155.032,145.25 C146.82,152.259 138.548,146.706 139.08,146.765 C141.369,143.886 140.103,141.553 142.145,141.565 C133.899,147.677 126.626,143.135 125.7,143.17 C129.902,142.706 130.967,139.477 133.229,139.477 C124.601,142.79 113.65,137.519 115.091,137.556" id="Fill-41" fill="#048072"></path>
            <path d="M306.875,132.454 L306.875,149.696 L306.861,152.721 C306.695,152.664 305.871,152.954 305.697,153.025 C304.939,153.326 304.902,152.323 304.197,152.89 L301.623,152.89 C300.572,152.89 299.847,151.732 299.847,151.732 L299.785,132.454 L306.875,132.454" id="Fill-42" fill="#048072"></path>
            <path d="M272.625,136.487 C278.827,131.749 283.146,122.749 283.778,122.761 C282.275,122.702 279.551,122.64 279.443,122.57 C283.615,120.03 287.654,109.866 286.096,109.855 C285.894,109.752 282.742,109.647 281.55,109.54 C288.79,105.643 292.077,97.249 291.886,97.234 C290.841,97.603 287.57,97.964 285.5,98.314 C293.494,92.804 295.9,85.402 294.222,85.413 C294.185,85.487 294.45,85.382 293.207,85.456 C296.867,80.527 302.29,63.379 303.148,63.256 C303.25,63.133 311.737,80.768 313.875,83.534 C313.105,83.607 313.404,83.682 312.749,83.756 C310.705,83.767 313.716,90.847 320.445,96.375 C317.84,96.166 316.699,95.968 314.65,95.779 C314.064,95.764 320.458,104.321 325.157,108.807 C323.683,108.947 322.791,109.09 319.601,109.236 C319.377,109.226 324.009,120.481 328.076,124.09 C327.411,124.02 326.69,123.957 325.077,123.899 C322.955,123.91 326.852,134.282 334.546,141.837 C334.235,141.866 327.177,144.757 320.728,140.751 C320.969,140.753 322.083,143.703 324.73,144.841 C327.128,144.868 319.71,147.009 314.46,141.216 C314.189,141.226 312.854,142.992 316.145,146.023 C316.129,146.068 309.789,148.745 302.948,142.331 C296.712,147.652 290.433,143.437 290.835,143.48 C292.574,141.296 291.613,139.524 293.166,139.531 C286.903,144.17 281.382,140.724 280.678,140.751 C283.868,140.399 284.676,137.946 286.393,137.948 C279.844,140.463 271.53,136.46 272.625,136.487" id="Fill-43" fill="#048072"></path>
            <path d="M94.744,135.688 L94.744,152.931 L94.728,155.955 C94.563,155.899 93.739,156.189 93.565,156.257 C92.808,156.56 92.771,155.558 92.065,156.122 L89.491,156.122 C88.441,156.122 87.716,154.964 87.716,154.964 L87.654,135.688 L94.744,135.688" id="Fill-44" fill="#048072"></path>
            <path d="M60.494,139.722 C66.695,134.982 71.015,125.983 71.647,125.994 C70.145,125.938 67.42,125.874 67.312,125.804 C71.484,123.264 75.522,113.1 73.966,113.089 C73.762,112.986 70.61,112.881 69.418,112.773 C76.659,108.876 79.946,100.482 79.754,100.467 C78.709,100.837 75.439,101.196 73.369,101.547 C81.363,96.038 83.769,88.635 82.092,88.647 C82.054,88.721 82.319,88.616 81.076,88.689 C84.736,83.76 90.157,66.612 91.018,66.489 C91.119,66.366 99.607,84.002 101.744,86.767 C100.973,86.84 101.272,86.915 100.617,86.989 C98.572,87.001 101.585,94.08 108.313,99.609 C105.708,99.4 104.566,99.201 102.518,99.012 C101.932,98.998 108.327,107.555 113.026,112.041 C111.552,112.181 110.659,112.324 107.469,112.469 C107.247,112.459 111.877,123.716 115.944,127.322 C115.279,127.252 114.559,127.19 112.945,127.131 C110.823,127.143 114.721,137.519 122.414,145.072 C122.103,145.1 115.045,147.99 108.597,143.984 C108.839,143.986 109.952,146.937 112.598,148.073 C114.998,148.101 107.58,150.241 102.329,144.448 C102.056,144.458 100.721,146.225 104.013,149.257 C103.997,149.302 97.658,151.979 90.816,145.564 C84.581,150.884 78.301,146.669 78.705,146.714 C80.443,144.529 79.481,142.757 81.033,142.765 C74.772,147.406 69.25,143.956 68.547,143.984 C71.737,143.633 72.546,141.181 74.262,141.181 C67.713,143.695 59.399,139.693 60.494,139.722" id="Fill-45" fill="#048072"></path>
            <path d="M215.469,133.79 L215.469,162.076 L215.446,167.037 C215.175,166.945 213.82,167.421 213.535,167.535 C212.295,168.029 212.235,166.387 211.078,167.316 C209.669,167.314 208.141,167.314 206.855,167.314 C205.132,167.314 203.944,165.414 203.944,165.414 L203.84,133.79 L215.469,133.79" id="Fill-46" fill="#009584"></path>
            <path d="M159.287,140.408 C169.458,132.633 176.546,117.871 177.582,117.891 C175.118,117.796 170.648,117.692 170.472,117.577 C177.316,113.412 183.939,96.736 181.386,96.719 C181.053,96.551 175.881,96.378 173.927,96.2 C185.806,89.807 191.197,76.039 190.881,76.014 C189.168,76.621 183.804,77.211 180.406,77.786 C193.521,68.749 197.469,56.605 194.716,56.624 C194.656,56.744 195.089,56.573 193.05,56.693 C199.054,48.607 207.947,20.478 209.359,20.275 C209.525,20.073 223.449,49.004 226.956,53.539 C225.689,53.66 226.181,53.783 225.107,53.905 C221.75,53.924 226.693,65.536 237.731,74.605 C233.458,74.263 231.585,73.938 228.224,73.627 C227.261,73.603 237.752,87.641 245.461,94.999 C243.042,95.228 241.58,95.464 236.345,95.702 C235.981,95.686 243.577,114.152 250.248,120.07 C249.158,119.952 247.978,119.852 245.329,119.756 C241.847,119.776 248.244,136.793 260.861,149.184 C260.351,149.232 248.775,153.973 238.197,147.403 C238.592,147.404 240.417,152.243 244.759,154.11 C248.695,154.156 236.527,157.665 227.915,148.165 C227.466,148.179 225.277,151.078 230.678,156.051 C230.651,156.122 220.25,160.515 209.027,149.992 C198.8,158.721 188.499,151.806 189.161,151.878 C192.011,148.296 190.433,145.388 192.978,145.402 C182.709,153.013 173.651,147.358 172.496,147.403 C177.73,146.822 179.057,142.802 181.874,142.804 C171.128,146.929 157.492,140.363 159.287,140.408" id="Fill-47" fill="#009584"></path>
            <path d="M335.813,143.66 L330.187,143.66 L330.259,166.062 C330.259,166.062 331.101,167.405 332.324,167.405 C333.233,167.405 334.318,167.405 335.313,167.407 C335.521,167.239 335.678,167.191 335.813,167.204 L335.813,143.66" id="Fill-48" fill="#009584"></path>
            <path d="M335.813,66.564 C334.793,64.534 334.125,63.218 334.096,63.255 C333.094,63.398 326.797,83.322 322.544,89.051 C323.988,88.965 323.679,89.087 323.724,89.001 C325.671,88.988 322.876,97.59 313.588,103.991 C315.995,103.584 319.794,103.165 321.008,102.736 C321.23,102.754 317.412,112.506 308.998,117.034 C310.383,117.16 314.046,117.282 314.283,117.402 C316.09,117.414 311.399,129.225 306.55,132.176 C306.677,132.257 309.841,132.331 311.587,132.398 C310.855,132.384 305.833,142.841 298.628,148.348 C297.429,148.318 305.953,152.45 313.31,150.471 C312.016,151.281 310.796,152.991 307.986,153.301 C308.762,153.272 314.58,156.877 321.388,152.637 C321.088,153.456 321.065,154.869 319.789,156.472 C319.319,156.421 326.618,161.32 333.861,155.136 C334.517,155.751 335.17,156.294 335.813,156.774 L335.813,66.564" id="Fill-49" fill="#009584"></path>
            <path d="M16.123,143.723 L16.123,163.758 L16.105,167.273 C15.914,167.206 14.955,167.543 14.754,167.625 C13.874,167.974 13.831,166.812 13.011,167.469 C12.014,167.467 10.931,167.467 10.02,167.467 C8.8,167.467 7.958,166.124 7.958,166.124 L7.885,143.723 L16.123,143.723" id="Fill-50" fill="#009584"></path>
            <path d="M48.275,154.627 C39.336,145.85 34.807,133.794 37.272,133.782 C39.148,133.849 39.984,133.923 40.757,134.002 C36.032,129.811 30.651,116.732 30.91,116.744 C34.617,116.574 35.653,116.409 37.366,116.245 C31.907,111.034 24.476,101.09 25.156,101.107 C27.538,101.327 28.864,101.558 31.891,101.8 C24.073,95.377 20.572,87.151 22.948,87.137 C23.709,87.051 23.361,86.965 24.258,86.879 C21.774,83.666 11.911,63.174 11.793,63.317 C10.793,63.46 4.495,83.385 0.242,89.113 C1.686,89.028 1.378,89.149 1.422,89.063 C2.5,89.056 2.123,91.686 0.003,95.118 L0.003,157.777 C2.685,158.617 7.132,158.979 11.559,155.197 C19.509,162.654 26.875,159.541 26.895,159.49 C23.069,155.969 24.62,153.914 24.937,153.904 C31.038,160.633 39.658,158.149 36.87,158.115 C33.973,156.871 32.658,153.758 32.28,153.398 C39.756,157.998 47.915,154.66 48.275,154.627" id="Fill-51" fill="#009584"></path>
            <path d="M82.37,139.033 C90.12,133.749 95.519,123.72 96.308,123.732 C94.43,123.667 91.026,123.597 90.891,123.519 C96.104,120.687 101.152,109.357 99.206,109.345 C98.952,109.23 95.012,109.113 93.524,108.992 C102.573,104.647 106.68,95.291 106.44,95.275 C105.135,95.687 101.048,96.089 98.46,96.479 C108.451,90.338 111.458,82.086 109.362,82.098 C109.315,82.181 109.645,82.063 108.092,82.145 C112.667,76.651 119.441,57.535 120.517,57.399 C120.643,57.261 131.25,76.92 133.922,80.003 C132.958,80.085 133.333,80.168 132.514,80.251 C129.958,80.263 133.723,88.156 142.131,94.318 C138.877,94.085 137.45,93.863 134.889,93.653 C134.157,93.636 142.149,103.175 148.021,108.176 C146.179,108.332 145.064,108.492 141.077,108.654 C140.799,108.642 146.585,121.19 151.668,125.211 C150.837,125.133 149.938,125.063 147.919,124.999 C145.269,125.012 150.141,136.575 159.755,144.997 C159.366,145.029 150.545,148.251 142.487,143.785 C142.789,143.787 144.18,147.077 147.486,148.342 C150.486,148.373 141.215,150.759 134.654,144.303 C134.312,144.313 132.645,146.283 136.758,149.663 C136.738,149.712 128.816,152.695 120.264,145.546 C112.473,151.476 104.625,146.777 105.129,146.826 C107.301,144.393 106.099,142.416 108.038,142.426 C100.214,147.599 93.313,143.754 92.434,143.785 C96.421,143.392 97.432,140.659 99.578,140.661 C91.392,143.464 81.002,139.002 82.37,139.033" id="Fill-52" fill="#00A491"></path>
            <path d="M205.974,148.124 C213.724,142.841 219.125,132.809 219.914,132.822 C218.035,132.759 214.631,132.689 214.497,132.61 C219.708,129.779 224.755,118.447 222.811,118.435 C222.558,118.321 218.619,118.204 217.13,118.083 C226.179,113.738 230.286,104.383 230.045,104.365 C228.741,104.778 224.655,105.179 222.065,105.57 C232.057,99.428 235.064,91.176 232.966,91.189 C232.919,91.272 233.251,91.155 231.697,91.237 C236.272,85.741 243.046,66.626 244.123,66.489 C244.249,66.352 254.855,86.011 257.528,89.093 C256.564,89.176 256.937,89.258 256.12,89.341 C253.563,89.354 257.33,97.246 265.738,103.409 C262.483,103.175 261.057,102.955 258.494,102.743 C257.761,102.727 265.755,112.266 271.627,117.267 C269.785,117.423 268.669,117.582 264.683,117.745 C264.404,117.733 270.192,130.28 275.275,134.302 C274.443,134.225 273.544,134.154 271.526,134.09 C268.874,134.102 273.746,145.666 283.361,154.087 C282.972,154.119 274.15,157.34 266.091,152.876 C266.394,152.876 267.785,156.165 271.091,157.434 C274.091,157.465 264.822,159.851 258.259,153.394 C257.917,153.404 256.25,155.375 260.365,158.752 C260.343,158.802 252.42,161.786 243.869,154.637 C236.079,160.567 228.23,155.867 228.735,155.918 C230.907,153.482 229.706,151.507 231.644,151.517 C223.819,156.688 216.919,152.845 216.041,152.876 C220.027,152.484 221.038,149.751 223.184,149.751 C214.998,152.555 204.608,148.093 205.974,148.124" id="Fill-53" fill="#00A491"></path>
            <path d="M0.003,115.02 L0.003,183.068 C14.465,178.551 24.965,165.028 24.965,149.043 C24.965,133.063 14.465,119.538 0.003,115.02" id="Fill-54" fill="#F9F6EC"></path>
            <path d="M63.176,157.945 C63.176,172.708 51.235,184.676 36.505,184.676 C21.776,184.676 9.835,172.708 9.835,157.945 C9.835,143.182 21.776,131.216 36.505,131.216 C51.235,131.216 63.176,143.182 63.176,157.945" id="Fill-55" fill="#F9F6EC"></path>
            <path d="M335.995,142.243 C331.515137,138.971 325.979582,137.034 319.990575,137.034 C305.080305,137.034 292.995,149.002 292.995,163.768 C292.995,178.529 305.080305,190.497 319.990575,190.497 C325.979582,190.497 331.515137,188.562 335.995,185.29 L335.995,142.243" id="Fill-56" fill="#F9F6EC"></path>
            <path d="M277.108,163.768 C277.108,181.757 262.557,196.342 244.607,196.342 C226.658,196.342 212.104,181.757 212.104,163.768 C212.104,145.776 226.658,131.191 244.607,131.191 C262.557,131.191 277.108,145.776 277.108,163.768" id="Fill-57" fill="#F9F6EC"></path>
            <path d="M72.935,169.024 C61.131,169.024 51.562,159.436 51.562,147.605 C51.562,135.775 61.131,126.184 72.935,126.184 C84.739,126.184 94.307,135.775 94.307,147.605 C94.307,159.436 84.739,169.024 72.935,169.024" id="Fill-58" fill="#F9F6EC"></path>
            <path d="M199.113,187.446 C186.062,187.446 175.484,176.845 175.484,163.768 C175.484,150.69 186.062,140.087 199.113,140.087 C212.161,140.087 222.739,150.69 222.739,163.768 C222.739,176.845 212.161,187.446 199.113,187.446" id="Fill-59" fill="#F9F6EC"></path>
            <path d="M286.649,182.828 C273.599,182.828 263.021,172.227 263.021,159.15 C263.021,146.07 273.599,135.467 286.649,135.467 C299.697,135.467 310.276,146.07 310.276,159.15 C310.276,172.227 299.697,182.828 286.649,182.828" id="Fill-60" fill="#F9F6EC"></path>
            <path d="M116.3825,208.198 C93.1825,208.198 74.3765,189.352 74.3765,166.101 C74.3765,142.851 93.1825,124 116.3825,124 C139.5785,124 158.3855,142.851 158.3855,166.101 C158.3855,189.352 139.5785,208.198 116.3825,208.198" id="Fill-61" fill="#F9F6EC"></path>
            <path d="M162.583,179.435 C151.711,179.435 142.899,170.603 142.899,159.708 C142.899,148.814 151.711,139.98 162.583,139.98 C173.452,139.98 182.262,148.814 182.262,159.708 C182.262,170.603 173.452,179.435 162.583,179.435" id="Fill-62" fill="#F9F6EC"></path>
            <polyline id="Fill-63" fill="#F9F6EC" points="336.004005 151.581 335.939923 236 0.374 236 0.374 149.41"></polyline>
            <path d="M238.364,16.123 C239.629,15.651 240.888,15.227 242.16,14.932 C243.422,14.62 244.703,14.444 245.912,14.487 C246.512,14.516 247.092,14.624 247.618,14.794 C247.88,14.882 248.136,14.984 248.362,15.126 C248.6,15.251 248.808,15.417 249.007,15.586 C249.203,15.765 249.384,15.955 249.554,16.164 C249.71,16.385 249.88,16.595 250.001,16.854 C250.142,17.093 250.248,17.361 250.351,17.631 C250.462,17.896 250.525,18.195 250.617,18.473 L250.628,18.51 C250.815,19.074 251.423,19.382 251.986,19.194 C252.317,19.084 252.561,18.822 252.667,18.512 C252.855,17.945 253.046,17.377 253.34,16.893 C253.612,16.389 253.958,15.959 254.36,15.605 C255.141,14.865 256.23,14.513 257.429,14.431 C258.027,14.389 258.646,14.436 259.271,14.507 C259.899,14.576 260.531,14.708 261.158,14.87 C261.793,15.017 262.418,15.216 263.049,15.423 C263.677,15.637 264.306,15.864 264.93,16.123 C263.919,15.214 262.754,14.49 261.514,13.88 C260.265,13.298 258.91,12.846 257.435,12.76 C257.066,12.734 256.692,12.743 256.314,12.766 C255.936,12.802 255.558,12.875 255.18,12.975 C254.804,13.088 254.432,13.22 254.077,13.405 C253.725,13.583 253.375,13.793 253.068,14.046 C252.741,14.282 252.481,14.584 252.21,14.873 C251.976,15.185 251.725,15.492 251.544,15.83 C251.132,16.486 250.87,17.188 250.628,17.886 L252.678,17.924 C252.557,17.569 252.467,17.21 252.313,16.862 C252.169,16.509 252.015,16.16 251.814,15.824 C251.636,15.481 251.384,15.164 251.142,14.851 C250.883,14.546 250.601,14.258 250.273,14.014 C249.951,13.775 249.607,13.553 249.244,13.39 C248.884,13.21 248.504,13.088 248.128,12.993 C247.375,12.798 246.608,12.76 245.879,12.821 C244.418,12.93 243.07,13.377 241.818,13.944 C240.574,14.538 239.399,15.24 238.364,16.123" id="Fill-495" fill="#FFF9EE"></path>
            <path d="M256.498,24.301 C257.322,23.994 258.14,23.718 258.968,23.526 C259.788,23.324 260.622,23.209 261.407,23.236 C261.801,23.255 262.176,23.326 262.52,23.436 C262.692,23.493 262.857,23.56 263.005,23.653 C263.159,23.734 263.293,23.842 263.424,23.952 C263.551,24.069 263.669,24.193 263.781,24.328 C263.88,24.472 263.991,24.609 264.069,24.777 C264.161,24.933 264.231,25.107 264.298,25.282 C264.371,25.456 264.412,25.65 264.472,25.831 L264.48,25.855 C264.601,26.222 264.997,26.423 265.363,26.3 C265.578,26.228 265.738,26.057 265.804,25.856 C265.927,25.487 266.052,25.117 266.244,24.802 C266.421,24.475 266.646,24.195 266.908,23.964 C267.417,23.482 268.124,23.254 268.905,23.2 C269.295,23.174 269.697,23.203 270.104,23.25 C270.512,23.295 270.924,23.381 271.333,23.486 C271.744,23.582 272.152,23.711 272.562,23.846 C272.97,23.986 273.38,24.133 273.787,24.301 C273.127,23.71 272.37,23.239 271.563,22.842 C270.75,22.463 269.868,22.169 268.909,22.113 C268.669,22.096 268.425,22.102 268.178,22.117 C267.933,22.14 267.687,22.188 267.442,22.253 C267.199,22.326 266.955,22.412 266.724,22.532 C266.494,22.648 266.267,22.785 266.066,22.95 C265.853,23.104 265.685,23.3 265.509,23.488 C265.357,23.691 265.193,23.891 265.075,24.111 C264.808,24.538 264.636,24.994 264.478,25.449 L265.812,25.473 C265.734,25.243 265.675,25.009 265.576,24.782 C265.482,24.553 265.382,24.326 265.25,24.107 C265.134,23.884 264.971,23.677 264.814,23.474 C264.646,23.275 264.46,23.088 264.249,22.929 C264.038,22.773 263.814,22.629 263.577,22.523 C263.344,22.406 263.096,22.326 262.851,22.265 C262.36,22.138 261.864,22.113 261.387,22.152 C260.437,22.224 259.56,22.514 258.744,22.884 C257.935,23.27 257.171,23.727 256.498,24.301" id="Fill-496" fill="#FFF9EE"></path>
            <path d="M205.399,97.255 C206.667,96.783 207.925,96.358 209.195,96.063 C210.458,95.752 211.738,95.576 212.946,95.618 C213.548,95.647 214.127,95.756 214.655,95.925 C214.917,96.013 215.171,96.115 215.399,96.257 C215.637,96.382 215.843,96.548 216.044,96.718 C216.239,96.896 216.419,97.086 216.591,97.295 C216.746,97.517 216.917,97.727 217.037,97.985 C217.176,98.224 217.285,98.492 217.388,98.762 C217.5,99.028 217.56,99.326 217.654,99.604 L217.666,99.641 C217.853,100.206 218.458,100.513 219.021,100.325 C219.353,100.215 219.597,99.953 219.703,99.643 C219.89,99.076 220.083,98.508 220.375,98.024 C220.649,97.52 220.995,97.09 221.397,96.737 C222.178,95.996 223.267,95.644 224.466,95.563 C225.064,95.521 225.681,95.568 226.308,95.639 C226.936,95.708 227.568,95.839 228.195,96.001 C228.831,96.149 229.456,96.347 230.084,96.555 C230.713,96.769 231.343,96.996 231.967,97.255 C230.954,96.345 229.79,95.622 228.55,95.011 C227.302,94.429 225.945,93.977 224.472,93.891 C224.103,93.865 223.729,93.874 223.351,93.897 C222.971,93.933 222.593,94.006 222.217,94.107 C221.842,94.22 221.469,94.352 221.114,94.536 C220.761,94.714 220.411,94.924 220.105,95.177 C219.777,95.414 219.517,95.715 219.248,96.004 C219.013,96.316 218.762,96.624 218.58,96.961 C218.169,97.617 217.906,98.319 217.664,99.018 L219.712,99.055 C219.591,98.7 219.501,98.342 219.351,97.992 C219.207,97.641 219.052,97.291 218.85,96.956 C218.673,96.613 218.421,96.295 218.179,95.982 C217.918,95.677 217.638,95.389 217.31,95.145 C216.986,94.906 216.644,94.684 216.278,94.521 C215.921,94.341 215.54,94.219 215.166,94.125 C214.409,93.929 213.644,93.891 212.917,93.952 C211.454,94.062 210.107,94.509 208.855,95.075 C207.609,95.67 206.434,96.372 205.399,97.255" id="Fill-497" fill="#FFF9EE"></path>
            <path d="M223.535,105.432 C224.357,105.127 225.175,104.85 226.003,104.657 C226.826,104.455 227.66,104.34 228.445,104.367 C228.838,104.386 229.212,104.457 229.555,104.568 C229.727,104.624 229.892,104.691 230.04,104.783 C230.194,104.866 230.331,104.973 230.459,105.084 C230.588,105.2 230.708,105.323 230.816,105.46 C230.917,105.604 231.028,105.74 231.106,105.908 C231.197,106.064 231.267,106.239 231.335,106.414 C231.408,106.587 231.447,106.781 231.507,106.962 L231.515,106.987 C231.636,107.354 232.032,107.553 232.398,107.432 C232.615,107.361 232.774,107.189 232.842,106.987 C232.964,106.618 233.089,106.249 233.281,105.933 C233.457,105.606 233.682,105.326 233.943,105.095 C234.453,104.614 235.162,104.384 235.94,104.332 C236.33,104.305 236.733,104.335 237.14,104.381 C237.549,104.425 237.959,104.512 238.368,104.617 C238.782,104.714 239.188,104.842 239.598,104.978 C240.006,105.117 240.416,105.265 240.824,105.432 C240.166,104.841 239.407,104.37 238.6,103.974 C237.788,103.594 236.905,103.299 235.944,103.244 C235.705,103.228 235.46,103.234 235.215,103.248 C234.968,103.271 234.722,103.319 234.476,103.384 C234.234,103.457 233.99,103.543 233.759,103.664 C233.531,103.779 233.302,103.916 233.103,104.081 C232.89,104.235 232.722,104.431 232.544,104.619 C232.392,104.823 232.228,105.024 232.112,105.241 C231.844,105.669 231.671,106.126 231.515,106.58 L232.848,106.605 C232.77,106.374 232.712,106.14 232.613,105.913 C232.519,105.683 232.417,105.457 232.285,105.237 C232.172,105.016 232.006,104.809 231.85,104.605 C231.681,104.406 231.498,104.219 231.285,104.06 C231.073,103.904 230.851,103.76 230.614,103.654 C230.381,103.537 230.131,103.457 229.888,103.395 C229.397,103.269 228.901,103.244 228.425,103.284 C227.472,103.355 226.595,103.646 225.781,104.014 C224.972,104.402 224.207,104.858 223.535,105.432" id="Fill-498" fill="#FFF9EE"></path>
            <path d="M99.565,46.149 C100.831,45.677 102.088,45.252 103.36,44.957 C104.623,44.646 105.903,44.47 107.111,44.512 C107.714,44.542 108.292,44.65 108.819,44.82 C109.082,44.907 109.336,45.01 109.563,45.152 C109.8,45.277 110.008,45.443 110.208,45.612 C110.404,45.79 110.585,45.981 110.756,46.19 C110.91,46.411 111.082,46.621 111.202,46.879 C111.341,47.118 111.45,47.386 111.553,47.656 C111.664,47.923 111.725,48.22 111.818,48.499 L111.83,48.535 C112.016,49.1 112.624,49.408 113.186,49.219 C113.518,49.11 113.763,48.847 113.868,48.537 C114.056,47.97 114.249,47.402 114.541,46.918 C114.813,46.415 115.16,45.985 115.56,45.631 C116.342,44.89 117.432,44.538 118.63,44.457 C119.228,44.415 119.847,44.462 120.473,44.533 C121.101,44.602 121.731,44.734 122.36,44.896 C122.995,45.043 123.62,45.242 124.25,45.449 C124.877,45.663 125.507,45.89 126.132,46.149 C125.119,45.239 123.955,44.516 122.715,43.906 C121.466,43.324 120.11,42.871 118.635,42.785 C118.268,42.76 117.893,42.768 117.515,42.792 C117.136,42.827 116.758,42.901 116.381,43.001 C116.007,43.114 115.633,43.246 115.279,43.43 C114.925,43.608 114.576,43.818 114.269,44.072 C113.942,44.308 113.682,44.609 113.412,44.899 C113.178,45.21 112.926,45.519 112.745,45.855 C112.334,46.511 112.07,47.213 111.829,47.912 L113.878,47.949 C113.757,47.594 113.667,47.236 113.516,46.887 C113.371,46.535 113.217,46.186 113.014,45.85 C112.836,45.507 112.585,45.189 112.344,44.877 C112.084,44.572 111.802,44.284 111.475,44.04 C111.151,43.8 110.808,43.579 110.442,43.415 C110.085,43.236 109.705,43.114 109.33,43.019 C108.575,42.823 107.81,42.785 107.081,42.846 C105.619,42.956 104.271,43.403 103.018,43.969 C101.774,44.564 100.599,45.266 99.565,46.149" id="Fill-499" fill="#FFF9EE"></path>
            <path d="M90.307,54.764 C91.13,54.457 91.949,54.181 92.777,53.989 C93.599,53.786 94.432,53.671 95.217,53.698 C95.61,53.718 95.986,53.789 96.329,53.899 C96.501,53.956 96.666,54.023 96.814,54.115 C96.969,54.197 97.103,54.304 97.233,54.415 C97.361,54.531 97.479,54.655 97.59,54.791 C97.69,54.935 97.802,55.072 97.879,55.24 C97.971,55.395 98.04,55.57 98.109,55.745 C98.181,55.918 98.221,56.113 98.281,56.294 L98.289,56.318 C98.41,56.685 98.806,56.885 99.172,56.763 C99.387,56.691 99.546,56.52 99.616,56.319 C99.738,55.949 99.863,55.58 100.053,55.265 C100.23,54.938 100.456,54.657 100.716,54.427 C101.225,53.946 101.934,53.716 102.714,53.663 C103.104,53.636 103.505,53.666 103.914,53.712 C104.322,53.758 104.733,53.843 105.142,53.949 C105.555,54.045 105.962,54.174 106.372,54.309 C106.78,54.448 107.19,54.595 107.596,54.764 C106.937,54.173 106.179,53.701 105.373,53.304 C104.56,52.926 103.678,52.631 102.717,52.576 C102.479,52.559 102.234,52.565 101.988,52.58 C101.742,52.603 101.496,52.651 101.25,52.716 C101.007,52.789 100.764,52.875 100.534,52.995 C100.303,53.111 100.076,53.247 99.876,53.412 C99.664,53.566 99.495,53.762 99.318,53.951 C99.166,54.154 99.002,54.354 98.884,54.573 C98.617,55.001 98.446,55.456 98.288,55.911 L99.623,55.936 C99.543,55.705 99.485,55.471 99.385,55.244 C99.292,55.015 99.192,54.788 99.059,54.569 C98.944,54.346 98.78,54.14 98.623,53.937 C98.455,53.738 98.271,53.55 98.058,53.391 C97.846,53.236 97.624,53.092 97.386,52.985 C97.154,52.868 96.906,52.789 96.662,52.727 C96.17,52.6 95.672,52.576 95.198,52.615 C94.247,52.687 93.37,52.977 92.554,53.346 C91.745,53.733 90.98,54.19 90.307,54.764" id="Fill-500" fill="#FFF9EE"></path>
            <path d="M226.792,25.77 C227.617,25.463 228.435,25.187 229.262,24.994 C230.083,24.792 230.917,24.677 231.705,24.704 C232.096,24.723 232.472,24.794 232.815,24.904 C232.986,24.962 233.152,25.028 233.3,25.121 C233.455,25.202 233.589,25.31 233.718,25.421 C233.845,25.536 233.964,25.66 234.076,25.796 C234.177,25.941 234.289,26.077 234.367,26.245 C234.457,26.401 234.525,26.575 234.593,26.751 C234.666,26.924 234.707,27.117 234.767,27.299 L234.775,27.323 C234.896,27.691 235.292,27.891 235.658,27.768 C235.874,27.697 236.032,27.526 236.1,27.324 C236.223,26.955 236.347,26.586 236.539,26.27 C236.715,25.943 236.942,25.663 237.203,25.433 C237.711,24.951 238.42,24.721 239.2,24.669 C239.59,24.642 239.992,24.671 240.4,24.718 C240.808,24.763 241.218,24.848 241.628,24.954 C242.039,25.05 242.449,25.179 242.857,25.315 C243.267,25.454 243.675,25.601 244.082,25.77 C243.422,25.178 242.666,24.707 241.857,24.31 C241.045,23.931 240.164,23.636 239.204,23.581 C238.964,23.564 238.721,23.57 238.473,23.585 C238.228,23.609 237.983,23.656 237.737,23.721 C237.493,23.794 237.25,23.88 237.02,24 C236.79,24.116 236.562,24.253 236.361,24.418 C236.149,24.572 235.979,24.768 235.804,24.956 C235.652,25.159 235.488,25.36 235.37,25.578 C235.103,26.006 234.931,26.463 234.773,26.917 L236.108,26.941 C236.028,26.711 235.971,26.477 235.872,26.25 C235.777,26.021 235.677,25.794 235.544,25.575 C235.429,25.352 235.266,25.145 235.109,24.942 C234.941,24.743 234.755,24.556 234.542,24.397 C234.333,24.241 234.109,24.097 233.871,23.99 C233.64,23.874 233.392,23.794 233.146,23.733 C232.656,23.606 232.159,23.581 231.685,23.621 C230.732,23.692 229.856,23.983 229.039,24.352 C228.23,24.738 227.466,25.196 226.792,25.77" id="Fill-501" fill="#FFF9EE"></path>
            <path d="M273.455,63.711 L273.455,62.393 C273.455,62.393 265.904,60.636 263.007,66.962 C260.11,73.286 268.537,84.09 273.455,90.68 L274.799,90.65 C274.799,90.65 268.362,78.733 270.235,71.469 C272.107,64.209 273.455,63.711 273.455,63.711" id="Fill-502" fill="#24AF92"></path>
            <path d="M273.394,62.569 C273.394,62.569 267.354,60.535 263.198,66.568 C263.198,66.568 264.192,60.562 269.416,60.175 C274.156,59.824 274.462,61.559 274.462,61.559 L273.394,62.569" id="Fill-503" fill="#FAD224"></path>
            <path d="M274.419,61.339 L276.175,61.076 C276.175,61.076 276,59.143 273.716,58.879 C271.434,58.616 268.011,60.197 267.835,60.46 C267.835,60.46 272.429,59.406 274.419,61.339" id="Fill-504" fill="#5E9AA6"></path>
            <polyline id="Fill-505" fill="#5E9AA6" points="272.861 96.802 272.861 100.756 276.824 103.065 277.009 98.527 272.861 96.802"></polyline>
            <polyline id="Fill-506" fill="#40656E" points="272.861 96.802 277.009 95.262 276.637 98.527 272.861 96.802"></polyline>
            <path d="M275.386,64.765 L273.365,63.711 C273.365,63.711 263.094,65.38 267.66,76.362 C272.225,87.342 274.683,90.68 274.683,90.68 L276.175,90.68 C276.175,90.68 268.975,69.508 275.386,64.765" id="Fill-507" fill="#E47233"></path>
            <path d="M280.193,63.711 L280.193,62.393 C280.193,62.393 287.744,60.636 290.64,66.962 C293.538,73.286 285.109,84.09 280.193,90.68 L278.846,90.65 C278.846,90.65 285.286,78.733 283.412,71.469 C281.541,64.209 280.193,63.711 280.193,63.711" id="Fill-508" fill="#40656E"></path>
            <path d="M278.038,64.677 L275.611,64.677 C275.611,64.677 271.463,66.639 272.976,77.195 C274.341,86.722 276.175,90.68 276.175,90.68 L276.957,90.68 L277.596,90.665 C277.596,90.665 279.306,86.722 280.672,77.195 C282.183,66.639 278.038,64.677 278.038,64.677" id="Fill-509" fill="#FAD224"></path>
            <path d="M280.251,62.569 C280.251,62.569 286.293,60.535 290.449,66.568 C290.449,66.568 289.455,60.562 284.232,60.175 C279.492,59.824 279.184,61.559 279.184,61.559 L280.251,62.569" id="Fill-510" fill="#FAD224"></path>
            <path d="M279.226,61.339 L277.471,61.076 C277.471,61.076 277.646,59.143 279.93,58.879 C282.21,58.616 285.637,60.197 285.813,60.46 C285.813,60.46 281.218,59.406 279.226,61.339" id="Fill-511" fill="#E47233"></path>
            <path d="M276.824,58.484 C275.523,58.447 273.57,58.85 273.57,58.85 C275.152,58.996 276.262,61.076 276.262,61.076 L276.798,61.156 L276.798,61.163 L276.824,61.16 L276.849,61.163 L276.849,61.156 L277.383,61.076 C277.383,61.076 278.496,58.996 280.076,58.85 C280.076,58.85 278.125,58.447 276.824,58.484" id="Fill-512" fill="#24AF92"></path>
            <polyline id="Fill-513" fill="#50848E" points="280.785 96.77 280.785 100.722 276.824 103.065 276.637 98.527 280.785 96.77"></polyline>
            <polyline id="Fill-514" fill="#34525A" points="280.785 96.802 276.637 95.262 277.009 98.527 280.785 96.802"></polyline>
            <path d="M278.262,64.765 L280.281,63.711 C280.281,63.711 290.552,65.38 285.988,76.362 C281.423,87.342 278.963,90.68 278.963,90.68 L277.471,90.68 C277.471,90.68 284.67,69.508 278.262,64.765" id="Fill-515" fill="#5E9AA6"></path>
            <polyline id="Fill-516" fill="#3A4960" points="274.611 93.333 273.048 90.136 273.671 90.603 274.925 93.179 274.611 93.333"></polyline>
            <polyline id="Fill-517" fill="#3A4960" points="275.14 92.425 274.468 90.365 274.972 90.681 275.476 92.317 275.14 92.425"></polyline>
            <polyline id="Fill-518" fill="#3A4960" points="276.14 94.582 275.957 90.206 276.307 90.68 276.491 94.566 276.14 94.582"></polyline>
            <polyline id="Fill-519" fill="#3A4960" points="273.168 96.972 272.861 96.802 274.646 93.553 274.953 93.72 273.168 96.972"></polyline>
            <polyline id="Fill-520" fill="#3A4960" points="279.038 93.333 278.721 93.179 279.977 90.603 280.547 90.206 279.038 93.333"></polyline>
            <polyline id="Fill-521" fill="#3A4960" points="278.505 92.425 278.17 92.317 278.692 90.687 279.178 90.365 278.505 92.425"></polyline>
            <polyline id="Fill-522" fill="#3A4960" points="277.545 94.58 277.192 94.567 277.297 90.68 277.626 90.206 277.545 94.58"></polyline>
            <polyline id="Fill-523" fill="#3A4960" points="280.477 96.972 278.692 93.72 279 93.553 280.785 96.802 280.477 96.972"></polyline>
            <path d="M276.824,92.26 C275.802,92.26 274.943,92.791 274.943,93.417 C274.943,94.044 275.802,94.574 276.824,94.574 C277.842,94.574 278.704,94.044 278.704,93.417 C278.704,92.791 277.842,92.26 276.824,92.26 Z M276.824,94.924 C275.593,94.924 274.591,94.25 274.591,93.417 C274.591,92.586 275.593,91.91 276.824,91.91 C278.075,91.91 279.055,92.572 279.055,93.417 C279.055,94.263 278.075,94.924 276.824,94.924 L276.824,94.924 Z" id="Fill-524" fill="#3A4960"></path>
            <path d="M280.667,62.782 C280.667,63.942 278.934,64.882 276.798,64.882 C274.664,64.882 272.929,63.942 272.929,62.782 C272.929,61.622 274.664,60.683 276.798,60.683 C278.934,60.683 280.667,61.622 280.667,62.782" id="Fill-525" fill="#50848E"></path>
            <path d="M276.824,98.527 L276.824,94.75" id="Fill-526" fill="#3A4960"></path>
            <polygon id="Fill-527" fill="#3A4960" points="276.446 98.527 277.2 98.527 277.2 94.75 276.446 94.75"></polygon>
            <path d="M52.512,44.054 L52.512,41.907 C52.512,41.907 40.21,39.044 35.491,49.351 C30.771,59.653 44.502,77.255 52.512,87.99 L54.704,87.942 C54.704,87.942 44.217,68.526 47.267,56.694 C50.318,44.865 52.512,44.054 52.512,44.054" id="Fill-528" fill="#24AF92"></path>
            <path d="M52.416,42.193 C52.416,42.193 42.573,38.88 35.804,48.709 C35.804,48.709 37.422,38.924 45.933,38.293 C53.657,37.721 54.156,40.548 54.156,40.548 L52.416,42.193" id="Fill-529" fill="#FAD224"></path>
            <path d="M54.084,40.189 L56.946,39.761 C56.946,39.761 56.659,36.613 52.94,36.182 C49.221,35.753 43.644,38.33 43.358,38.758 C43.358,38.758 50.842,37.04 54.084,40.189" id="Fill-530" fill="#5E9AA6"></path>
            <polyline id="Fill-531" fill="#5E9AA6" points="51.545 97.966 51.545 104.406 58 108.169 58.305 100.774 51.545 97.966"></polyline>
            <polyline id="Fill-532" fill="#40656E" points="51.545 97.966 58.305 95.457 57.698 100.774 51.545 97.966"></polyline>
            <path d="M55.658,45.772 L52.369,44.054 C52.369,44.054 35.634,46.773 43.072,64.664 C50.51,82.551 54.514,87.99 54.514,87.99 L56.946,87.99 C56.946,87.99 45.216,53.498 55.658,45.772" id="Fill-533" fill="#E47233"></path>
            <path d="M63.492,44.054 L63.492,41.907 C63.492,41.907 75.791,39.044 80.512,49.351 C85.231,59.653 71.5,77.255 63.492,87.99 L61.296,87.942 C61.296,87.942 71.788,68.526 68.735,56.694 C65.683,44.865 63.492,44.054 63.492,44.054" id="Fill-534" fill="#40656E"></path>
            <path d="M59.978,45.628 L56.024,45.628 C56.024,45.628 49.268,48.824 51.733,66.023 C53.957,81.544 56.946,87.99 56.946,87.99 L58.217,87.99 L59.258,87.966 C59.258,87.966 62.045,81.544 64.271,66.023 C66.733,48.824 59.978,45.628 59.978,45.628" id="Fill-535" fill="#FAD224"></path>
            <path d="M63.586,42.193 C63.586,42.193 73.429,38.88 80.199,48.709 C80.199,48.709 78.579,38.924 70.071,38.293 C62.347,37.721 61.846,40.548 61.846,40.548 L63.586,42.193" id="Fill-536" fill="#FAD224"></path>
            <path d="M61.917,40.189 L59.056,39.761 C59.056,39.761 59.342,36.613 63.062,36.182 C66.78,35.753 72.359,38.33 72.644,38.758 C72.644,38.758 65.16,37.04 61.917,40.189" id="Fill-537" fill="#E47233"></path>
            <path d="M58,35.537 C55.88,35.477 52.701,36.134 52.701,36.134 C55.277,36.372 57.088,39.761 57.088,39.761 L57.96,39.891 L57.96,39.903 L58,39.899 L58.042,39.903 L58.042,39.891 L58.915,39.761 C58.915,39.761 60.726,36.372 63.299,36.134 C63.299,36.134 60.123,35.477 58,35.537" id="Fill-538" fill="#24AF92"></path>
            <polyline id="Fill-539" fill="#50848E" points="64.456 97.912 64.456 104.351 58 108.169 57.698 100.774 64.456 97.912"></polyline>
            <polyline id="Fill-540" fill="#34525A" points="64.456 97.966 57.698 95.457 58.305 100.774 64.456 97.966"></polyline>
            <path d="M60.345,45.772 L63.633,44.054 C63.633,44.054 80.369,46.773 72.931,64.664 C65.494,82.551 61.489,87.99 61.489,87.99 L59.056,87.99 C59.056,87.99 70.785,53.498 60.345,45.772" id="Fill-541" fill="#5E9AA6"></path>
            <polyline id="Fill-542" fill="#3A4960" points="54.395 92.313 51.85 87.106 52.864 87.865 54.909 92.062 54.395 92.313"></polyline>
            <polyline id="Fill-543" fill="#3A4960" points="55.26 90.834 54.164 87.478 54.985 87.993 55.806 90.658 55.26 90.834"></polyline>
            <polyline id="Fill-544" fill="#3A4960" points="56.887 94.347 56.59 87.218 57.161 87.99 57.459 94.321 56.887 94.347"></polyline>
            <polyline id="Fill-545" fill="#3A4960" points="52.047 98.241 51.545 97.966 54.453 92.671 54.955 92.946 52.047 98.241"></polyline>
            <polyline id="Fill-546" fill="#3A4960" points="61.608 92.313 61.093 92.062 63.138 87.865 64.068 87.218 61.608 92.313"></polyline>
            <polyline id="Fill-547" fill="#3A4960" points="60.743 90.834 60.197 90.658 61.047 88.002 61.838 87.478 60.743 90.834"></polyline>
            <polyline id="Fill-548" fill="#3A4960" points="59.175 94.345 58.602 94.323 58.772 87.99 59.311 87.218 59.175 94.345"></polyline>
            <polyline id="Fill-549" fill="#3A4960" points="63.956 98.241 61.047 92.946 61.547 92.671 64.456 97.966 63.956 98.241"></polyline>
            <path d="M58,90.567 C56.339,90.567 54.938,91.43 54.938,92.45 C54.938,93.472 56.339,94.336 58,94.336 C59.663,94.336 61.066,93.472 61.066,92.45 C61.066,91.43 59.663,90.567 58,90.567 Z M58,94.906 C55.996,94.906 54.365,93.806 54.365,92.45 C54.365,91.095 55.996,89.993 58,89.993 C60.039,89.993 61.638,91.073 61.638,92.45 C61.638,93.828 60.039,94.906 58,94.906 L58,94.906 Z" id="Fill-550" fill="#3A4960"></path>
            <path d="M64.262,42.541 C64.262,44.43 61.441,45.962 57.96,45.962 C54.479,45.962 51.658,44.43 51.658,42.541 C51.658,40.652 54.479,39.121 57.96,39.121 C61.441,39.121 64.262,40.652 64.262,42.541" id="Fill-551" fill="#50848E"></path>
            <path d="M58,100.774 L58,94.622" id="Fill-552" fill="#3A4960"></path>
        </g>
    </g>
</svg>